<?xml version="1.0" encoding="UTF-8"?>
<!DOCTYPE svg PUBLIC "-//W3C//DTD SVG 1.1//EN" "http://www.w3.org/Graphics/SVG/1.1/DTD/svg11.dtd">
<!-- Creator: CorelDRAW 2020 (64-Bit) -->
<svg xmlns="http://www.w3.org/2000/svg" xml:space="preserve" width="165.562mm" height="69.6418mm" version="1.1" style="shape-rendering:geometricPrecision; text-rendering:geometricPrecision; image-rendering:optimizeQuality; fill-rule:evenodd; clip-rule:evenodd"
viewBox="0 0 3577.08 1504.66"
 xmlns:xlink="http://www.w3.org/1999/xlink"
 xmlns:xodm="http://www.corel.com/coreldraw/odm/2003">
 <defs>
  <style type="text/css">
   <![CDATA[
    .str0 {stroke:#2B2A29;stroke-width:32.41;stroke-miterlimit:22.9256}
    .fil1 {fill:#2B2A29}
    .fil0 {fill:#2B2A29;fill-rule:nonzero}
   ]]>
  </style>
 </defs>
 <g id="Layer_x0020_1">
  <metadata id="CorelCorpID_0Corel-Layer"/>
  <path class="fil0" d="M1343.19 691.06l924.91 0 0 409.92c0,82.46 -8.4,145.11 -24.97,187.95 -16.58,42.84 -45.86,77.08 -87.84,102.7 -41.98,25.62 -88.49,38.32 -139.3,38.32 -65.66,0 -120.99,-21.31 -165.99,-63.73 -45,-42.41 -73.42,-107.86 -85.69,-196.56 -15.5,32.51 -31,57.05 -46.07,73.85 -32.72,35.74 -73.85,69.54 -123.15,101.19l-251.9 159.96 0 -152.86 192.47 -122.29c55.76,-35.52 98.17,-65.02 127.67,-88.06 29.5,-23.25 49.95,-43.92 61.79,-62.22 11.63,-18.08 19.81,-36.81 24.54,-55.76 2.8,-13.78 4.31,-36.39 4.31,-68.03l0 -141.66 -410.78 0 0 -122.72zm516.71 122.72l0 262.66c0,55.98 5.81,99.47 17.44,130.9 11.41,31.43 29.93,55.33 55.55,71.48 25.41,16.36 52.96,24.54 82.89,24.54 43.7,0 79.87,-15.72 108.08,-47.36 28.2,-31.65 42.2,-81.6 42.2,-149.85l0 -292.37 -306.15 0z"/>
  <path class="fil0" d="M1343.19 813.6l924.91 0 0 -409.92c0,-82.46 -8.4,-145.11 -24.97,-187.95 -16.58,-42.84 -45.86,-77.08 -87.84,-102.7 -41.98,-25.62 -88.49,-38.32 -139.3,-38.32 -65.66,0 -120.99,21.31 -165.99,63.73 -45,42.41 -73.42,107.86 -85.69,196.56 -15.5,-32.51 -31,-57.05 -46.07,-73.85 -32.72,-35.74 -73.85,-69.54 -123.15,-101.19l-251.9 -159.96 0 152.86 192.47 122.29c55.76,35.52 98.17,65.02 127.67,88.06 29.5,23.25 49.95,43.92 61.79,62.22 11.63,18.08 19.81,36.81 24.54,55.76 2.8,13.78 4.31,36.39 4.31,68.03l0 141.66 -410.78 0 0 122.72zm516.71 -122.72l0 -262.66c0,-55.98 5.81,-99.47 17.44,-130.9 11.41,-31.43 29.93,-55.33 55.55,-71.48 25.41,-16.36 52.96,-24.54 82.89,-24.54 43.7,0 79.87,15.72 108.08,47.36 28.2,31.65 42.2,81.6 42.2,149.85l0 292.37 -306.15 0z"/>
  <path class="fil0 str0" d="M85.67 1459.55l0 -632.61 238.85 0c41.97,0 74.07,2.06 96.31,6.04 31.07,5.16 57.13,15.02 78.19,29.45 21.06,14.58 37.99,34.9 50.8,60.96 12.81,26.07 19.14,54.78 19.14,86.15 0,53.6 -17.08,99.1 -51.39,136.21 -34.16,37.26 -96.16,55.81 -185.69,55.81l-162.28 0 0 257.99 -83.94 0zm83.94 -332.21l163.45 0c54.19,0 92.48,-10.01 115.3,-30.19 22.68,-20.18 34.02,-48.45 34.02,-85.12 0,-26.36 -6.63,-49.04 -20.03,-67.89 -13.4,-18.85 -31.07,-31.36 -52.87,-37.4 -14.14,-3.68 -40.2,-5.59 -78.04,-5.59l-161.84 0 0 226.19zm479.76 24.3c0,-104.85 28.27,-187.02 84.67,-246.36 56.4,-59.34 129.14,-88.94 218.38,-88.94 58.46,0 111.03,13.99 158.01,41.82 46.83,27.83 82.61,66.71 107.2,116.63 24.59,49.77 36.96,106.32 36.96,169.49 0,64.06 -12.96,121.49 -38.88,172 -25.92,50.66 -62.59,88.94 -110,114.86 -47.56,26.06 -98.81,39.02 -153.74,39.02 -59.64,0 -112.8,-14.43 -159.77,-43.15 -46.83,-28.71 -82.46,-67.89 -106.61,-117.66 -24.15,-49.62 -36.23,-102.19 -36.23,-157.71zm86.59 1.47c0,76.13 20.47,136.07 61.41,179.8 40.94,43.74 92.33,65.68 154.18,65.68 63.03,0 114.71,-22.09 155.5,-66.26 40.64,-44.18 60.96,-106.91 60.96,-188.19 0,-51.39 -8.69,-96.31 -26.06,-134.59 -17.38,-38.29 -42.85,-68.03 -76.28,-89.09 -33.58,-21.06 -71.13,-31.66 -112.8,-31.66 -59.2,0 -110.15,20.32 -152.85,60.96 -42.7,40.64 -64.06,108.38 -64.06,203.36z"/>
  <path class="fil0 str0" d="M2599.76 1460.06l0 -558.4 -208.51 0 0 -74.22 500.97 0 0 74.22 -208.52 0 0 558.4 -83.94 0zm337.37 -307.91c0,-104.85 28.27,-187.02 84.67,-246.36 56.4,-59.34 129.14,-88.94 218.38,-88.94 58.46,0 111.03,13.99 158.01,41.82 46.83,27.83 82.61,66.71 107.2,116.63 24.59,49.77 36.96,106.32 36.96,169.49 0,64.06 -12.96,121.49 -38.88,172 -25.92,50.66 -62.59,88.94 -110,114.86 -47.56,26.06 -98.81,39.02 -153.74,39.02 -59.64,0 -112.8,-14.43 -159.77,-43.15 -46.83,-28.71 -82.46,-67.89 -106.61,-117.66 -24.15,-49.62 -36.23,-102.19 -36.23,-157.71zm86.59 1.47c0,76.13 20.47,136.07 61.41,179.8 40.94,43.74 92.33,65.68 154.18,65.68 63.03,0 114.71,-22.09 155.5,-66.26 40.64,-44.18 60.96,-106.91 60.96,-188.19 0,-51.39 -8.69,-96.31 -26.06,-134.59 -17.38,-38.29 -42.85,-68.03 -76.28,-89.09 -33.58,-21.06 -71.13,-31.66 -112.8,-31.66 -59.2,0 -110.15,20.32 -152.85,60.96 -42.7,40.64 -64.06,108.38 -64.06,203.36z"/>
  <path class="fil0 str0" d="M268.08 676.29l-244.45 -632.61 90.71 0 164.34 459.73c13.11,36.81 24.3,71.27 33.13,103.52 9.72,-34.6 21.06,-69.06 34.02,-103.52l170.52 -459.73 85.41 0 -246.65 632.61 -87.03 0zm383.46 -307.91c0,-104.85 28.27,-187.02 84.67,-246.36 56.4,-59.34 129.14,-88.94 218.38,-88.94 58.46,0 111.03,13.99 158.01,41.82 46.83,27.83 82.61,66.71 107.2,116.63 24.59,49.77 36.96,106.32 36.96,169.49 0,64.06 -12.96,121.49 -38.88,172 -25.92,50.66 -62.59,88.94 -110,114.86 -47.56,26.06 -98.81,39.02 -153.74,39.02 -59.64,0 -112.8,-14.43 -159.77,-43.15 -46.83,-28.71 -82.46,-67.89 -106.61,-117.66 -24.15,-49.62 -36.23,-102.19 -36.23,-157.71zm86.59 1.47c0,76.13 20.47,136.07 61.41,179.8 40.94,43.74 92.33,65.68 154.18,65.68 63.03,0 114.71,-22.09 155.5,-66.26 40.64,-44.18 60.96,-106.91 60.96,-188.19 0,-51.39 -8.69,-96.31 -26.06,-134.59 -17.38,-38.29 -42.85,-68.03 -76.28,-89.09 -33.58,-21.06 -71.13,-31.66 -112.8,-31.66 -59.2,0 -110.15,20.32 -152.85,60.96 -42.7,40.64 -64.06,108.38 -64.06,203.36z"/>
  <path class="fil0 str0" d="M2350.2 369.26c0,-104.85 28.27,-187.02 84.67,-246.36 56.4,-59.34 129.14,-88.94 218.38,-88.94 58.46,0 111.03,13.99 158.01,41.82 46.83,27.83 82.61,66.71 107.2,116.63 24.59,49.77 36.96,106.32 36.96,169.49 0,64.06 -12.96,121.49 -38.88,172 -25.92,50.66 -62.59,88.94 -110,114.86 -47.56,26.06 -98.81,39.02 -153.74,39.02 -59.64,0 -112.8,-14.43 -159.77,-43.15 -46.83,-28.71 -82.46,-67.89 -106.61,-117.66 -24.15,-49.62 -36.23,-102.19 -36.23,-157.71zm86.59 1.47c0,76.13 20.47,136.07 61.41,179.8 40.94,43.74 92.33,65.68 154.18,65.68 63.03,0 114.71,-22.09 155.5,-66.26 40.64,-44.18 60.96,-106.91 60.96,-188.19 0,-51.39 -8.69,-96.31 -26.06,-134.59 -17.38,-38.29 -42.85,-68.03 -76.28,-89.09 -33.58,-21.06 -71.13,-31.66 -112.8,-31.66 -59.2,0 -110.15,20.32 -152.85,60.96 -42.7,40.64 -64.06,108.38 -64.06,203.36zm625.4 306.44l0 -632.61 86 0 331.92 496.55 0 -496.55 80.4 0 0 632.61 -86 0 -331.92 -496.55 0 496.55 -80.4 0z"/>
  <polygon class="fil1" points="3577.08,690.39 69.43,690.39 69.43,813.54 3577.08,813.54 "/>
 </g>
</svg>
