<?xml version="1.0" encoding="UTF-8"?>
<!DOCTYPE svg PUBLIC "-//W3C//DTD SVG 1.1//EN" "http://www.w3.org/Graphics/SVG/1.1/DTD/svg11.dtd">
<!-- Creator: CorelDRAW 2020 (64-Bit) -->
<svg xmlns="http://www.w3.org/2000/svg" xml:space="preserve" width="2.3916mm" height="1.799mm" version="1.1" style="shape-rendering:geometricPrecision; text-rendering:geometricPrecision; image-rendering:optimizeQuality; fill-rule:evenodd; clip-rule:evenodd"
viewBox="0 0 28.36 21.33"
 xmlns:xlink="http://www.w3.org/1999/xlink"
 xmlns:xodm="http://www.corel.com/coreldraw/odm/2003">
 <defs>
  <style type="text/css">
   <![CDATA[
    .fil0 {fill:#1CCE1C;fill-rule:nonzero}
   ]]>
  </style>
 </defs>
 <g id="Layer_x0020_1">
  <metadata id="CorelCorpID_0Corel-Layer"/>
  <g>
   <path class="fil0" d="M22.89 1.04c1.15,-1.29 3.14,-1.4 4.43,-0.24 1.29,1.15 1.4,3.14 0.24,4.43l-4.67 -4.19zm-13.49 15.06l13.49 -15.06 4.67 4.19 -13.49 15.06 -4.67 0 0 -4.19zm4.67 4.19c-1.15,1.29 -3.14,1.4 -4.43,0.24 -1.29,-1.15 -1.4,-3.14 -0.24,-4.43l4.67 4.19zm-8.6 -13.79l8.6 9.6 -4.67 4.19 -8.6 -9.6 4.67 -4.19zm-4.67 4.19c-1.15,-1.29 -1.05,-3.28 0.24,-4.43 1.29,-1.15 3.28,-1.05 4.43,0.24l-4.67 4.19z"/>
  </g>
 </g>
</svg>
